# xmcd CD database file
#
# Track frame offsets:
#	150
#	20352
#	42855
#	69525
#
# Disc length: 1194 seconds
#
# Revision: 0
# Processed by: cddbd v1.5.1PL0 Copyright (c) Steve Scherf et al.
# Submitted via: CDex 1.51
#
DISCID=2b04a804
DTITLE=クイヌパナ - Funkacha!
DYEAR=2002
DGENRE=JPop
TTITLE0=Funkacha!
TTITLE1=赤い嵐
TTITLE2=Funkacha!〜Funkbeat Style〜
TTITLE3=FUNKACHA!〜Inst.〜
EXTD=YEAR: 2002
EXTT0=
EXTT1=
EXTT2=
EXTT3=
PLAYORDER=
